PathFileType	4	(X/Y/Z)	TVC_12_BWA2_walk_RCNL2025.trc
DataRate	CameraRate	NumFrames	NumMarkers	Units	OrigDataRate	OrigDataStartFrame	OrigNumFrames
100	100	9	27	mm	100	111	440
Frame#	Time	R_Shoulder			L_Shoulder			C7			J_Notch			R_Elbow			L_Elbow			R_Wrist			L_Wrist			R_Asis			L_Asis			R_Psis			L_Psis			Sacral			Thoracic			Sternum			R_Thigh_Lateral			R_Knee_Lateral			R_Shank_Lateral			R_Ankle_Lateral			R_Heel			R_Toe			L_Thigh_Lateral			L_Knee_Lateral			L_Shank_Lateral			L_Ankle_Lateral			L_Heel			L_Toe		
		X1	Y1	Z1	X2	Y2	Z2	X3	Y3	Z3	X4	Y4	Z4	X5	Y5	Z5	X6	Y6	Z6	X7	Y7	Z7	X8	Y8	Z8	X9	Y9	Z9	X10	Y10	Z10	X11	Y11	Z11	X12	Y12	Z12	X13	Y13	Z13	X14	Y14	Z14	X15	Y15	Z15	X16	Y16	Z16	X17	Y17	Z17	X18	Y18	Z18	X19	Y19	Z19	X20	Y20	Z20	X21	Y21	Z21	X22	Y22	Z22	X23	Y23	Z23	X24	Y24	Z24	X25	Y25	Z25	X26	Y26	Z26	X27	Y27	Z27
111	1.10000000	-175.938583	1356.068481	-85.127991	-188.431198	1342.304199	-503.633270	-279.730408	1424.470703	-291.914612	-133.551895	1307.117676	-291.488617	-313.567200	1047.335693	-10.609175	-364.200378	1046.172729	-553.479614	-289.610901	798.540985	-54.351477	-348.960266	810.636230	-482.820328	-231.243439	917.810059	-104.939873	-221.631012	924.785156	-453.093475	-399.172882	950.380310	-217.973877	-402.253510	960.006226	-324.697021	-400.713196	955.193268	-271.335449	-380.791687	1172.498657	-286.607697	-55.863987	1113.647583	-295.911285	-140.703201	622.987488	-75.846039	-93.360718	502.879456	-135.051208	-108.881386	285.704681	-100.921333	-82.504112	76.069077	-172.232986	-122.409325	73.110931	-229.943344	50.248844	74.510689	-188.782303	-288.124146	621.897278	-478.715393	-310.816315	473.582794	-383.870911	-378.260529	283.919525	-409.203033	-402.346497	76.044502	-321.473633	-445.011658	65.900803	-266.882568	-259.644653	42.740410	-306.431519
112	1.11000000	-170.480637	1354.841675	-84.463997	-182.807037	1341.647705	-503.105469	-274.233307	1423.511230	-291.190002	-127.874939	1306.319702	-290.952301	-308.167999	1045.956543	-10.558578	-358.454559	1045.771118	-553.609680	-284.136490	797.286896	-54.701687	-343.822617	809.975006	-483.393494	-225.747513	916.349915	-104.699417	-215.008148	924.219604	-453.053467	-392.996490	948.859802	-218.360596	-395.897003	958.761292	-324.915497	-394.446747	953.810547	-271.638046	-374.909485	1171.344116	-286.330414	-49.896866	1113.012329	-295.680389	-138.450974	619.392029	-76.122292	-88.632454	501.055542	-136.447037	-96.739143	283.640533	-102.754105	-62.830746	75.111221	-174.003036	-102.341827	70.552567	-231.822235	70.444412	78.410255	-190.267349	-283.821381	621.606445	-478.500153	-308.907623	473.540894	-383.599976	-377.267456	284.212738	-408.876434	-402.195435	76.291496	-321.322968	-444.851196	66.298820	-266.733673	-259.574951	42.723667	-306.420715
113	1.12000000	-164.955856	1353.542114	-83.730301	-177.149689	1340.987183	-502.503113	-268.693176	1422.501221	-290.381744	-122.147438	1305.481323	-290.355316	-302.699554	1044.498413	-10.460500	-352.608215	1045.310547	-553.714111	-278.625771	795.953247	-55.012260	-338.529831	809.268280	-483.962372	-220.049866	914.852051	-104.418297	-208.322433	923.606140	-452.991577	-386.694427	947.284485	-218.680756	-389.442596	957.451721	-325.072021	-388.068512	952.368103	-271.876389	-368.956787	1170.128540	-285.978363	-43.855980	1112.347900	-295.415680	-136.541977	615.449646	-76.619461	-83.927994	499.144379	-137.904617	-85.107193	281.788483	-104.551270	-44.367882	74.456467	-175.622498	-83.422028	68.365242	-233.604156	89.364548	82.233917	-191.519119	-279.325287	621.198059	-478.310120	-306.811005	473.469299	-383.356506	-376.135315	284.489349	-408.547607	-402.017609	76.551559	-321.159912	-444.664673	66.724403	-266.579346	-259.506012	42.707047	-306.391022
114	1.13000000	-159.359787	1352.179321	-82.925293	-171.457291	1340.332520	-501.824402	-263.104340	1421.451172	-289.488403	-116.364853	1304.613525	-289.694855	-297.154907	1042.970337	-10.313498	-346.663544	1044.800049	-553.786377	-273.076118	794.546631	-55.282743	-333.086716	808.525238	-484.517151	-214.136459	913.326904	-104.107254	-201.585571	922.946899	-452.918518	-380.257996	945.674988	-218.924271	-382.886566	956.092224	-325.161438	-381.572281	950.883606	-272.042854	-362.927094	1168.862671	-285.551575	-37.736343	1111.664551	-295.116394	-134.868378	611.254089	-77.373848	-79.213295	497.175140	-139.409256	-74.041374	280.107330	-106.309578	-27.234703	73.991180	-177.125992	-65.790443	66.480072	-235.318863	106.875397	85.812782	-192.559586	-274.581482	620.661865	-478.148926	-304.517303	473.366882	-383.137360	-374.861206	284.752808	-408.214233	-401.811584	76.829033	-320.983246	-444.449310	67.183968	-266.412628	-259.437805	42.690418	-306.342316
115	1.14000000	-153.687561	1350.764282	-82.047821	-165.727585	1339.693359	-501.068085	-257.460754	1420.372559	-288.508972	-110.522125	1303.728760	-288.968536	-291.526550	1041.383057	-10.116498	-340.623718	1044.250732	-553.819458	-267.484871	793.075195	-55.512833	-327.498901	807.756866	-485.048386	-207.997650	911.784668	-103.777328	-194.808044	922.245056	-452.845154	-373.679962	944.053345	-219.082443	-376.225281	954.699036	-325.179932	-374.952621	949.376190	-272.131187	-356.813934	1167.558960	-285.050720	-31.532959	1110.973999	-294.781555	-133.290298	606.923950	-78.400414	-74.458885	495.174744	-140.941467	-63.597023	278.543915	-108.031586	-11.526755	73.599358	-178.554932	-49.567661	64.824745	-236.996536	122.862823	88.987846	-193.425171	-269.561737	619.997070	-478.019379	-302.020538	473.234650	-382.938263	-373.443695	285.008606	-407.875061	-401.576141	77.130058	-320.793213	-444.203339	67.686241	-266.227142	-259.369354	42.673626	-306.275818
116	1.15000000	-147.933975	1349.310059	-81.097237	-159.957825	1339.080566	-500.233490	-251.756134	1419.278564	-287.442963	-104.613686	1302.840820	-288.174591	-285.806610	1039.749268	-9.868776	-334.492493	1043.676025	-553.805298	-261.848869	791.549164	-55.702368	-321.772598	806.975555	-485.547119	-201.627121	910.235962	-103.439461	-187.998077	921.504700	-452.781830	-366.954895	942.442871	-219.148453	-369.455292	953.289551	-325.125244	-368.205093	947.866211	-272.136848	-350.610840	1166.231079	-284.476898	-25.240927	1110.288574	-294.409882	-131.642731	602.595215	-79.687828	-69.640068	493.167938	-142.478241	-53.826660	277.038727	-109.724457	2.685539	73.173210	-179.950943	-34.848652	63.328979	-238.663086	137.240524	91.616783	-194.163071	-264.272949	619.213806	-477.922363	-299.317505	473.075806	-382.754089	-371.882172	285.264069	-407.530548	-401.310394	77.462776	-320.592255	-443.926178	68.242188	-266.018433	-259.298645	42.656433	-306.194031
117	1.16000000	-142.093414	1347.831543	-80.073448	-154.144608	1338.504883	-499.320587	-245.983917	1418.183350	-286.290375	-98.633568	1301.964478	-287.311890	-279.986847	1038.083740	-9.569927	-328.274078	1043.091431	-553.735535	-256.164429	789.980988	-55.851299	-315.914398	806.195099	-486.005219	-195.020798	908.692871	-103.104095	-181.160736	920.731384	-452.737457	-360.079498	940.867859	-219.117691	-362.573639	951.881958	-324.996796	-361.326569	946.374908	-272.057243	-344.311707	1164.894531	-283.831757	-18.855532	1109.621826	-293.999786	-129.747406	598.410156	-81.196999	-64.736603	491.177368	-143.994492	-44.774796	275.532715	-111.397530	15.359269	72.622437	-181.348999	-21.697329	61.930416	-240.335602	149.957520	93.579414	-194.825699	-258.754669	618.333313	-477.855133	-296.407135	472.895630	-382.579590	-370.175995	285.528076	-407.183533	-401.013611	77.837387	-320.385101	-443.619110	68.864639	-265.785828	-259.223267	42.638557	-306.100494
118	1.17000000	-136.160065	1346.344971	-78.977005	-148.283768	1337.978271	-498.329956	-240.137482	1417.101929	-285.051819	-92.575531	1301.115356	-286.379974	-274.059143	1036.402466	-9.219821	-321.972687	1042.513916	-553.601318	-250.427643	788.385162	-55.959606	-309.931168	805.430756	-486.415451	-188.176193	907.169556	-102.780632	-174.297501	919.932068	-452.718506	-353.053040	939.352539	-218.988037	-355.577850	950.495117	-324.795715	-354.315445	944.923828	-271.891876	-337.910889	1163.565552	-283.117432	-12.372365	1108.987671	-293.549561	-127.428551	594.503357	-82.864326	-59.732132	489.224335	-145.464294	-36.471272	273.974731	-113.058891	26.482960	71.880836	-182.771500	-10.141673	60.580193	-242.018967	161.004868	94.782196	-195.464401	-253.066711	617.386841	-477.809937	-293.289673	472.701324	-382.409943	-368.323853	285.810883	-406.839661	-400.685211	78.265953	-320.179535	-443.285065	69.567734	-265.533997	-259.140808	42.619656	-305.999390
119	1.18000000	-130.128006	1344.867920	-77.809097	-142.370407	1337.512939	-497.262756	-234.210297	1416.050415	-283.728577	-86.433258	1300.310059	-285.379150	-268.015411	1034.723145	-8.818563	-315.592346	1041.962280	-553.393677	-244.634483	786.777985	-56.027132	-303.829803	804.698700	-486.771500	-181.092148	905.682556	-102.476959	-167.406342	919.115540	-452.728180	-345.877319	937.921204	-218.759933	-348.466400	949.148132	-324.524841	-347.171860	943.534668	-271.642387	-331.403534	1162.261597	-282.336761	-5.787448	1108.400391	-293.057251	-124.529732	590.988403	-84.609482	-54.613338	487.329681	-146.862198	-28.924419	272.328827	-114.711586	36.081451	70.909691	-184.224670	-0.169902	59.247559	-243.704330	170.420807	95.161987	-196.123062	-247.272720	616.413452	-477.774353	-289.965851	472.501801	-382.241333	-366.323120	286.123779	-406.507507	-400.324341	78.762047	-319.986694	-442.928345	70.366028	-265.274567	-259.049377	42.599323	-305.895355
